<?xml version="1.0" standalone="no"?>
<!DOCTYPE svg PUBLIC "-//W3C//DTD SVG 20010904//EN"
 "http://www.w3.org/TR/2001/REC-SVG-20010904/DTD/svg10.dtd">
<svg version="1.0" xmlns="http://www.w3.org/2000/svg"
 width="16.000000pt" height="16.000000pt" viewBox="0 0 16.000000 16.000000"
 preserveAspectRatio="xMidYMid meet">
<metadata>
Created by potrace 1.11, written by Peter Selinger 2001-2013
</metadata>
<g transform="translate(0.000000,16.000000) scale(0.001667,-0.001667)"
fill="#000000" stroke="none">
<path d="M4670 7050 c-731 -89 -1209 -516 -1271 -1135 -48 -481 201 -857 751
-1134 138 -70 192 -92 435 -181 296 -109 459 -220 527 -357 28 -58 33 -79 36
-164 4 -80 0 -108 -17 -161 -73 -214 -306 -320 -675 -305 -284 12 -612 99
-887 238 -45 22 -83 39 -85 37 -4 -5 -194 -706 -194 -719 0 -13 139 -81 254
-124 285 -106 599 -158 961 -158 225 0 340 10 531 48 601 120 996 483 1080
991 19 120 14 359 -11 474 -48 219 -174 428 -350 581 -180 156 -382 263 -765
406 -223 83 -340 138 -436 204 -131 91 -186 188 -186 329 1 229 165 377 458
411 229 27 564 -42 850 -176 51 -24 96 -40 98 -37 2 4 45 158 96 342 50 184
93 342 96 351 4 13 -19 27 -103 62 -186 78 -349 124 -561 158 -145 23 -508 34
-632 19z"/>
<path d="M7115 3900 c-137 -19 -253 -79 -350 -182 -208 -220 -215 -567 -15
-800 56 -65 177 -143 263 -170 95 -30 274 -32 357 -4 147 49 283 160 348 283
159 301 43 665 -261 819 -92 47 -232 69 -342 54z"/>
</g>
</svg>
