<?xml version="1.0" standalone="no"?>
<!DOCTYPE svg PUBLIC "-//W3C//DTD SVG 20010904//EN"
 "http://www.w3.org/TR/2001/REC-SVG-20010904/DTD/svg10.dtd">
<svg version="1.0" xmlns="http://www.w3.org/2000/svg"
 width="16.000000pt" height="16.000000pt" viewBox="0 0 16.000000 16.000000"
 preserveAspectRatio="xMidYMid meet">
<metadata>
Created by potrace 1.11, written by Peter Selinger 2001-2013
</metadata>
<g transform="translate(0.000000,16.000000) scale(0.002974,-0.002974)"
fill="#000000" stroke="none">
<path d="M2235 5254 c-242 -68 -449 -126 -460 -128 -11 -3 -69 -19 -130 -36
-60 -18 -117 -33 -125 -36 -28 -7 -84 -22 -140 -38 -397 -111 -638 -178 -650
-181 -8 -2 -114 -31 -235 -65 -121 -34 -239 -66 -262 -72 l-43 -10 0 -2344 0
-2344 2505 0 2505 0 0 2344 0 2343 -102 28 c-141 38 -199 54 -453 125 -121 34
-242 67 -270 75 -27 7 -124 34 -215 60 -91 25 -172 48 -181 50 -9 2 -49 13
-90 24 -41 12 -92 26 -114 33 -22 6 -53 15 -70 19 -16 5 -79 23 -140 39 -60
17 -132 37 -160 45 -96 27 -419 117 -429 120 -6 1 -18 4 -26 7 -33 12 -217 58
-245 62 -19 3 -197 -43 -470 -120z"/>
</g>
</svg>
