<svg xmlns="http://www.w3.org/2000/svg" xmlns:xlink="http://www.w3.org/1999/xlink" aria-hidden="true" focusable="false" width="0.75em" height="1em" style="-ms-transform: rotate(360deg); -webkit-transform: rotate(360deg); transform: rotate(360deg);" preserveAspectRatio="xMidYMid meet" viewBox="0 0 1056 1408">
  <defs>
    <symbol id="level-down" viewBox="0 0 576 512">
      <g transform="translate(0 1408) scale(1 -1)">
        <path d="M1018 475q-18 37-58 37H768v864q0 14-9 23t-23 9H32q-21 0-29-18-8-20 4-35l160-192q9-11 25-11h320V512H320q-40 0-58-37-17-37 9-68L591 23q18-22 49-22t49 22l320 384q27 32 9 68z" fill="#626262"/>
      </g>
    </symbol>
    <symbol id="paragraph" viewBox="0 0 576 512">
      <path d="M1278 61v73q0 29-18.5 61t-42.5 32q-50 0-54 1-26 6-32 31-3 11-3 64v1152q0 25-18 43t-43 18H959q-25 0-43-18t-18-43V257H755v1218q0 25-17.5 43t-43.5 18H586q-26 0-43.5-18t-17.5-43V979q-147-12-245-59-126-58-192-179-64-117-64-259 0-166 88-286Q200 78 321 37 432 0 738 0h479q25 0 43 18t18 43z" fill="#626262"/>
    </symbol>
  </defs>
</svg>
